<?xml version="1.0" standalone="no"?>
<!DOCTYPE svg PUBLIC "-//W3C//DTD SVG 20010904//EN"
 "http://www.w3.org/TR/2001/REC-SVG-20010904/DTD/svg10.dtd">
<svg version="1.0" xmlns="http://www.w3.org/2000/svg"
 width="256.000000pt" height="256.000000pt" viewBox="0 0 256.000000 256.000000"
 preserveAspectRatio="xMidYMid meet">

<g transform="translate(0.000000,256.000000) scale(0.100000,-0.100000)"
fill="#FF3311" stroke="none">
<path d="M1951 2493 c-16 -14 -25 -39 -36 -103 -19 -117 -31 -170 -60 -253
-55 -156 -18 -203 132 -166 118 29 170 39 261 49 107 11 134 28 130 78 -2 30
-9 40 -33 51 -26 13 -46 12 -162 -2 -72 -9 -138 -20 -147 -23 -27 -10 -29 22
-7 130 29 144 28 200 -4 231 -29 30 -45 31 -74 8z"/>
<path d="M1741 2474 c-12 -15 -21 -36 -21 -48 0 -56 -46 -201 -96 -301 -65
-132 -153 -243 -279 -352 -49 -43 -125 -111 -167 -151 -42 -41 -81 -71 -86
-68 -6 3 -13 23 -16 43 -23 126 -79 231 -157 293 -92 73 -179 88 -199 35 -14
-38 3 -68 59 -105 121 -77 164 -164 167 -340 1 -58 3 -112 3 -121 2 -30 40
-59 77 -59 33 0 49 13 208 173 94 95 204 201 243 236 117 100 256 292 304 420
32 86 69 239 69 287 0 78 -66 112 -109 58z"/>
<path d="M2155 1891 c-122 -32 -230 -71 -350 -126 -162 -74 -215 -124 -194
-185 12 -34 36 -48 108 -59 174 -28 288 -149 299 -319 9 -135 -45 -262 -155
-364 -154 -143 -375 -157 -512 -32 -54 48 -85 103 -106 184 -21 82 -45 110
-98 110 -45 0 -73 -17 -167 -105 -83 -77 -116 -115 -275 -316 -159 -202 -197
-246 -357 -420 -136 -147 -150 -176 -110 -212 41 -38 69 -24 182 91 98 99 258
280 305 343 172 233 351 435 377 427 7 -3 26 -31 42 -63 92 -180 275 -280 482
-261 297 27 533 288 534 590 0 173 -81 325 -226 421 -55 37 -56 38 -37 57 27
26 250 103 369 127 104 20 127 34 127 76 0 67 -75 78 -238 36z"/>
<path d="M677 1730 c-37 -29 -34 -62 8 -108 47 -53 55 -79 55 -187 0 -142 -41
-309 -111 -448 -51 -101 -242 -340 -443 -555 -99 -106 -116 -137 -98 -177 29
-62 93 -35 207 89 106 116 291 336 367 439 219 296 289 806 127 930 -50 38
-80 42 -112 17z"/>
</g>
</svg>
