<svg fill="none" height="20" viewBox="0 0 20 20" width="20" xmlns="http://www.w3.org/2000/svg"><path d="m11.1968 2.43913c.5858-.58579 1.5355-.58579 2.1213 0l4.2426 4.24264c.5858.58578.5858 1.53553 0 2.12132l-8.19687 8.19691h5.13607c.2761 0 .5.2239.5.5s-.2239.5-.5.5h-6.6804c-.40979.0215-.82671-.1243-1.13972-.4373l-4.24264-4.2426c-.58578-.5858-.58578-1.5355 0-2.1213zm1.4142.7071c-.1953-.19526-.5118-.19526-.7071 0l-6.36568 6.36568 4.94978 4.94979 6.3656-6.36572c.1953-.19526.1953-.51184 0-.70711zm-2.83014 12.02257-4.94975-4.9498-1.68686 1.6869c-.19526.1952-.19526.5118 0 .7071l4.24264 4.2426c.19526.1953.51184.1953.70711 0z" fill="#212121"/></svg>